<svg width="174" height="48" viewBox="0 0 174 48" fill="none" xmlns="http://www.w3.org/2000/svg">
<path d="M35.4014 17.395H40.3924L37.6784 30.068H42.3474L41.9564 32H32.2964L35.4014 17.395ZM46.4971 17.395H56.1801L55.8121 19.143H51.1201L50.1541 23.582H54.0871L53.7191 25.307H49.7861L48.7281 30.229H53.4201L53.0751 32H43.3921L46.4971 17.395ZM67.2185 32H61.8365L59.2835 21.443L57.0295 32H54.9595L58.0645 17.395H63.5615L65.9765 28.09L68.2535 17.395H70.3695L67.2185 32ZM82.5032 32H77.1212L76.7992 28.343H72.5442L70.9112 32H68.6802L75.4652 17.395H80.9162L82.5032 32ZM73.3032 26.664H76.6382L76.1092 20.408L73.3032 26.664ZM96.0301 30.758C95.6468 30.942 95.2481 31.126 94.8341 31.31C94.4354 31.4787 94.0061 31.632 93.5461 31.77C93.0861 31.8927 92.5801 31.9923 92.0281 32.069C91.4914 32.1457 90.9011 32.184 90.2571 32.184C88.2024 32.184 86.6154 31.724 85.4961 30.804C84.3921 29.884 83.8401 28.3507 83.8401 26.204C83.8401 24.962 84.0318 23.7967 84.4151 22.708C84.7984 21.604 85.3658 20.6457 86.1171 19.833C86.8684 19.005 87.7961 18.3533 88.9001 17.878C90.0041 17.4027 91.2691 17.165 92.6951 17.165C93.3698 17.165 93.9831 17.211 94.5351 17.303C95.1024 17.395 95.6084 17.5177 96.0531 17.671C96.5131 17.809 96.9194 17.9623 97.2721 18.131C97.6401 18.2997 97.9698 18.4607 98.2611 18.614L97.4331 22.892H93.2931C93.3084 22.7387 93.3238 22.5393 93.3391 22.294C93.3698 22.0487 93.3928 21.8033 93.4081 21.558C93.4234 21.2973 93.4388 21.0443 93.4541 20.799C93.4694 20.5537 93.4771 20.3467 93.4771 20.178C93.4771 20.0553 93.4694 19.9173 93.4541 19.764C93.4388 19.5953 93.4004 19.4343 93.3391 19.281C93.2778 19.1277 93.1781 19.005 93.0401 18.913C92.9174 18.8057 92.7488 18.752 92.5341 18.752C92.1354 18.752 91.7674 18.9207 91.4301 19.258C91.1081 19.58 90.8168 20.017 90.5561 20.569C90.2954 21.1057 90.0654 21.719 89.8661 22.409C89.6668 23.099 89.4981 23.8043 89.3601 24.525C89.2374 25.2303 89.1378 25.928 89.0611 26.618C88.9998 27.308 88.9691 27.9137 88.9691 28.435C88.9691 28.5883 88.9768 28.78 88.9921 29.01C89.0074 29.24 89.0534 29.4623 89.1301 29.677C89.2068 29.8917 89.3218 30.0757 89.4751 30.229C89.6438 30.3823 89.8661 30.459 90.1421 30.459C90.6174 30.459 91.0774 30.1677 91.5221 29.585C91.9668 28.987 92.3578 27.929 92.6951 26.411H96.9501L96.0301 30.758ZM110.513 32H105.545L106.925 25.491H104.096L102.716 32H97.7476L100.853 17.395H105.844L104.487 23.743H107.293L108.65 17.395H113.664L110.513 32ZM125.808 32H120.426L120.104 28.343H115.849L114.216 32H111.985L118.77 17.395H124.221L125.808 32ZM116.608 26.664H119.943L119.414 20.408L116.608 26.664ZM139.161 32H133.779L131.226 21.443L128.972 32H126.902L130.007 17.395H135.504L137.919 28.09L140.196 17.395H142.312L139.161 32Z" fill="white"/>
</svg>
